<svg width="50" height="53" viewBox="0 0 50 53" fill="none" xmlns="http://www.w3.org/2000/svg">
<path d="M25 5.21741C13.955 5.21741 4.99998 14.5618 4.99998 26.087C4.99998 35.8661 11.4533 44.0487 20.1533 46.3131C20.06 46.0313 20 45.7044 20 45.2991V41.7322C19.1883 41.7322 17.8283 41.7322 17.4866 41.7322C16.1183 41.7322 14.9016 41.1183 14.3116 39.9774C13.6566 38.7096 13.5433 36.7705 11.92 35.5844C11.4383 35.1896 11.805 34.7391 12.36 34.8C13.385 35.1026 14.235 35.8365 15.035 36.9252C15.8316 38.0157 16.2066 38.2626 17.695 38.2626C18.4166 38.2626 19.4966 38.2191 20.5133 38.0522C21.06 36.6035 22.005 35.2696 23.16 34.64C16.5 33.9252 13.3217 30.4678 13.3217 25.7739C13.3217 23.7531 14.1467 21.7983 15.5483 20.1513C15.0883 18.5165 14.51 15.1826 15.725 13.9131C18.7217 13.9131 20.5333 15.9409 20.9683 16.4887C22.4616 15.9548 24.1016 15.6522 25.825 15.6522C27.5516 15.6522 29.1983 15.9548 30.695 16.4922C31.125 15.9478 32.9383 13.9131 35.9416 13.9131C37.1616 15.1844 36.5766 18.5322 36.1116 20.1635C37.505 21.807 38.325 23.7565 38.325 25.7739C38.325 30.4644 35.1516 33.92 28.5016 34.6383C30.3316 35.6348 31.6666 38.4348 31.6666 40.5444V45.2991C31.6666 45.48 31.6283 45.6105 31.6083 45.7652C39.4016 42.9148 45 35.1931 45 26.087C45 14.5618 36.045 5.21741 25 5.21741Z" fill="#D8E4E0"/>
</svg>
