<svg width="50" height="50" viewBox="0 0 50 50" fill="none" xmlns="http://www.w3.org/2000/svg">
<path d="M7.8125 7.8125V42.1875H42.1875V7.8125H7.8125ZM10.9375 10.9375H39.0625V39.0625H10.9375V10.9375ZM17.1875 15.625V24.234V34.3597C26.4531 34.3597 28.3071 34.4847 30.0415 33.9691C31.0571 33.6566 33.8379 32.6569 33.8379 29.1412C33.8379 27.5787 33.3695 24.936 30.307 24.2798V24.234H29.7302C31.2927 23.5309 32.2754 22.2046 32.2754 20.2515C32.2754 19.7515 32.4158 15.625 26.947 15.625H17.1875ZM20.3125 18.75H26.5625C28.9203 18.75 29.1504 20.0832 29.1504 21.0785C29.1504 23.5066 26.6094 23.4375 26.5625 23.4375H20.3125V18.75ZM20.3125 26.5625H27.7496C30.6574 26.5625 30.7129 28.4007 30.7129 28.8757C30.7129 31.3132 28.1947 31.25 27.89 31.25H20.3125V26.5625Z" fill="#D8E4E0"/>
</svg>
