<svg width="20" height="20" viewBox="0 0 20 20" fill="none" xmlns="http://www.w3.org/2000/svg">
<circle cx="10" cy="10" r="10" fill="#27293A"/>
<mask id="path-2-inside-1" fill="white">
<path fill-rule="evenodd" clip-rule="evenodd" d="M19.8758 11.5803C18.965 11.8533 17.9997 12 17 12C11.4772 12 7 7.52286 7 2.00001C7 1.46228 7.04244 0.934452 7.12416 0.419708C3.00307 1.65503 0 5.47682 0 10C0 15.5229 4.47715 20 10 20C14.9851 20 19.1182 16.3523 19.8758 11.5803Z"/>
</mask>
<path fill-rule="evenodd" clip-rule="evenodd" d="M19.8758 11.5803C18.965 11.8533 17.9997 12 17 12C11.4772 12 7 7.52286 7 2.00001C7 1.46228 7.04244 0.934452 7.12416 0.419708C3.00307 1.65503 0 5.47682 0 10C0 15.5229 4.47715 20 10 20C14.9851 20 19.1182 16.3523 19.8758 11.5803Z" fill="#FFAC14"/>
<path d="M19.8758 11.5803L20.3696 11.6587L20.4944 10.8729L19.7323 11.1014L19.8758 11.5803ZM7.12416 0.419708L7.61798 0.498106L7.74273 -0.287692L6.9806 -0.059237L7.12416 0.419708ZM19.7323 11.1014C18.8676 11.3606 17.9505 11.5 17 11.5V12.5C18.0488 12.5 19.0625 12.3461 20.0194 12.0593L19.7323 11.1014ZM17 11.5C11.7533 11.5 7.5 7.24672 7.5 2.00001H6.5C6.5 7.799 11.201 12.5 17 12.5V11.5ZM7.5 2.00001C7.5 1.48863 7.54036 0.987015 7.61798 0.498106L6.63035 0.34131C6.54453 0.881888 6.5 1.43592 6.5 2.00001H7.5ZM0.5 10C0.5 5.70372 3.35233 2.07232 7.26773 0.898654L6.9806 -0.059237C2.65382 1.23774 -0.5 5.24992 -0.5 10H0.5ZM10 19.5C4.75329 19.5 0.5 15.2467 0.5 10H-0.5C-0.5 15.799 4.20101 20.5 10 20.5V19.5ZM19.382 11.5019C18.6624 16.0349 14.7354 19.5 10 19.5V20.5C15.2348 20.5 19.5741 16.6697 20.3696 11.6587L19.382 11.5019Z" fill="#FFAC14" mask="url(#path-2-inside-1)"/>
</svg>
