<svg width="23" height="24" viewBox="0 0 23 24" fill="none" xmlns="http://www.w3.org/2000/svg">
<path d="M11.5 2.40002C6.4193 2.40002 2.3 6.69842 2.3 12C2.3 16.4984 5.26854 20.2624 9.27054 21.304C9.2276 21.1744 9.2 21.024 9.2 20.8376V19.1968C8.82664 19.1968 8.20104 19.1968 8.04387 19.1968C7.41444 19.1968 6.85477 18.9144 6.58337 18.3896C6.28207 17.8064 6.22994 16.9144 5.4832 16.3688C5.26164 16.1872 5.4303 15.98 5.6856 16.008C6.1571 16.1472 6.5481 16.4848 6.9161 16.9856C7.28257 17.4872 7.45507 17.6008 8.1397 17.6008C8.47167 17.6008 8.96847 17.5808 9.43614 17.504C9.6876 16.8376 10.1223 16.224 10.6536 15.9344C7.59 15.6056 6.12797 14.0152 6.12797 11.856C6.12797 10.9264 6.50747 10.0272 7.15224 9.26962C6.94064 8.51762 6.6746 6.98402 7.2335 6.40002C8.61197 6.40002 9.44534 7.33282 9.64544 7.58482C10.3324 7.33922 11.0868 7.20002 11.8795 7.20002C12.6738 7.20002 13.4312 7.33922 14.1197 7.58642C14.3175 7.33602 15.1516 6.40002 16.5332 6.40002C17.0944 6.98482 16.8253 8.52482 16.6114 9.27522C17.2523 10.0312 17.6295 10.928 17.6295 11.856C17.6295 14.0136 16.1698 15.6032 13.1108 15.9336C13.9526 16.392 14.5667 17.68 14.5667 18.6504V20.8376C14.5667 20.9208 14.549 20.9808 14.5398 21.052C18.1248 19.7408 20.7 16.1888 20.7 12C20.7 6.69842 16.5807 2.40002 11.5 2.40002Z" fill="#4AB878"/>
</svg>
