<svg width="50" height="50" viewBox="0 0 50 50" fill="none" xmlns="http://www.w3.org/2000/svg">
<path fill-rule="evenodd" clip-rule="evenodd" d="M34.5547 3.9844C33.775 3.95818 32.9589 4.09412 32.1406 4.3594C30.5041 4.88996 28.7892 5.92391 27.0293 7.35549C26.3396 7.91653 25.6436 8.55785 24.9453 9.2383C24.2624 8.57513 23.5807 7.95102 22.9062 7.40237C21.1478 5.97193 19.4375 4.93759 17.8047 4.40823C16.1719 3.87886 14.5472 3.86246 13.2129 4.63284C11.8786 5.40321 11.0806 6.81738 10.7227 8.49612C10.3647 10.1749 10.4041 12.174 10.7637 14.4121C10.8886 15.1895 11.0667 16.0051 11.2695 16.836C10.5071 17.067 9.76668 17.31 9.08008 17.5781C7.00798 18.3875 5.29345 19.3557 4.04492 20.5078C2.7964 21.66 1.99023 23.0583 1.99023 24.5938C1.99023 26.1292 2.7964 27.5256 4.04492 28.6778C5.29345 29.8299 7.00798 30.8001 9.08008 31.6094C9.81425 31.8961 10.6091 32.1543 11.4297 32.3985C11.1345 33.5013 10.8954 34.5715 10.7324 35.586C10.3726 37.8259 10.3346 39.8253 10.6934 41.5078C11.0521 43.1904 11.8505 44.6126 13.1914 45.3867C14.5323 46.1609 16.1643 46.1419 17.8008 45.6114C19.4373 45.0808 21.1502 44.0488 22.9102 42.6172C23.5935 42.0613 24.2848 41.4272 24.9766 40.7539C25.672 41.4313 26.366 42.0684 27.0527 42.627C28.8112 44.0574 30.5234 45.0898 32.1562 45.6192C33.7891 46.1485 35.4137 46.1649 36.748 45.3946C38.0824 44.6242 38.8784 43.21 39.2363 41.5313C39.5943 39.8525 39.5549 37.8553 39.1953 35.6172C39.0319 34.6 38.7926 33.5262 38.4961 32.4199C39.3438 32.1699 40.1637 31.9047 40.9199 31.6094C42.992 30.8001 44.7066 29.8299 45.9551 28.6778C47.2036 27.5256 48.0098 26.1292 48.0098 24.5938C48.0098 23.0583 47.2036 21.66 45.9551 20.5078C44.7066 19.3557 42.992 18.3875 40.9199 17.5781C40.2235 17.3061 39.4717 17.06 38.6973 16.8262C38.9018 15.9902 39.0833 15.1688 39.209 14.3867C39.5688 12.1468 39.6068 10.1455 39.248 8.46291C38.8893 6.78037 38.089 5.36015 36.748 4.58596C36.0776 4.19887 35.3344 4.01061 34.5547 3.9844ZM34.4629 6.01955C34.9522 6.03293 35.3695 6.14936 35.7266 6.35549C36.4406 6.76775 36.9684 7.57012 37.25 8.89065C37.5316 10.2112 37.5218 11.9954 37.1895 14.0645C37.0756 14.7729 36.9104 15.5237 36.7227 16.293C34.6772 15.8007 32.4357 15.4354 30.0469 15.2207C28.8476 13.5594 27.6154 12.0458 26.373 10.7031C27.0302 10.0617 27.6831 9.46175 28.3203 8.94338C29.946 7.62096 31.4851 6.72112 32.7695 6.30471C33.4117 6.09651 33.9736 6.00618 34.4629 6.01955ZM15.4863 6.02541C15.9784 6.01168 16.5415 6.10176 17.1855 6.31057C18.4737 6.72818 20.0155 7.62762 21.6426 8.95119C22.267 9.45916 22.9053 10.0477 23.5488 10.6739C22.2973 12.0275 21.0549 13.5542 19.8477 15.2305C17.4689 15.4491 15.2366 15.8164 13.2012 16.3106C13.0148 15.5456 12.8496 14.7986 12.7363 14.0938C12.4036 12.0229 12.3953 10.2384 12.6777 8.91409C12.9601 7.58974 13.4922 6.78133 14.2129 6.36526C14.5732 6.15722 14.9942 6.03915 15.4863 6.02541ZM24.9766 12.1426C25.7912 13.0291 26.606 13.9992 27.4141 15.043C26.62 15.0099 25.8163 14.9903 25 14.9903C24.1675 14.9903 23.3484 15.0105 22.5391 15.0449C23.3474 14.0003 24.1618 13.0298 24.9766 12.1426ZM25 17.0098C26.3599 17.0098 27.6853 17.0657 28.9746 17.1602C29.8617 18.4343 30.7286 19.7861 31.5547 21.2168C32.2805 22.474 32.9373 23.7292 33.5352 24.9688C32.931 26.2248 32.2632 27.497 31.5273 28.7715C30.8796 29.8934 30.2032 30.959 29.5156 31.9864C28.0593 32.1081 26.5503 32.1758 25 32.1758C23.4124 32.1758 21.8695 32.1041 20.3809 31.9766C19.7047 30.964 19.0397 29.9146 18.4023 28.8106C17.6682 27.539 17.0036 26.2691 16.4004 25.0156C17.0061 23.7551 17.6737 22.4782 18.4121 21.1992C19.2338 19.776 20.0982 18.4321 20.9805 17.1641C22.2836 17.0674 23.6245 17.0098 25 17.0098ZM31.5488 17.4102C33.1973 17.6159 34.7451 17.9014 36.1855 18.2442C35.7581 19.6453 35.2317 21.1088 34.5938 22.6192C34.1796 21.8207 33.7506 21.0196 33.2871 20.2168C32.7254 19.2439 32.1404 18.3164 31.5488 17.4102ZM18.3438 17.4258C17.7647 18.3151 17.1948 19.2246 16.6445 20.1778C16.1751 20.9908 15.7372 21.8028 15.3184 22.6114C14.686 21.1101 14.1627 19.6549 13.7383 18.2617C15.168 17.9184 16.7068 17.6338 18.3438 17.4258ZM38.1641 18.7754C38.8729 18.9899 39.5576 19.2137 40.1855 19.459C42.0957 20.2051 43.6067 21.0885 44.5859 21.9922C45.5652 22.8959 45.9902 23.7577 45.9902 24.5938C45.9902 25.4298 45.5652 26.2916 44.5859 27.1953C43.6067 28.099 42.0957 28.9825 40.1855 29.7285C39.4877 30.0011 38.721 30.2483 37.9238 30.4824C37.3552 28.7237 36.6294 26.8888 35.7656 25.0156C36.7588 22.8651 37.5611 20.7683 38.1641 18.7754ZM11.8027 18.7852C12.3988 20.7582 13.1908 22.8341 14.1699 24.9629C13.3005 26.847 12.5711 28.6923 12 30.461C11.231 30.2329 10.4902 29.9925 9.81445 29.7285C7.9043 28.9825 6.39335 28.099 5.41406 27.1953C4.43477 26.2916 4.00977 25.4298 4.00977 24.5938C4.00977 23.7577 4.43477 22.8959 5.41406 21.9922C6.39335 21.0885 7.9043 20.2051 9.81445 19.459C10.4328 19.2175 11.1059 18.9969 11.8027 18.7852ZM25 20C22.2504 20 20 22.2504 20 25C20 27.7496 22.2504 30 25 30C27.7496 30 30 27.7496 30 25C30 22.2504 27.7496 20 25 20ZM15.3418 27.3653C15.7625 28.1779 16.2 28.9933 16.6719 29.8106C17.041 30.45 17.4181 31.0724 17.8008 31.6836C16.4578 31.4974 15.1812 31.2616 13.9824 30.9824C14.3637 29.8148 14.8197 28.6028 15.3418 27.3653ZM34.6191 27.3653C35.1433 28.6057 35.5996 29.8197 35.9824 30.9903C34.7798 31.2691 33.4993 31.5041 32.1523 31.6895C32.5401 31.0708 32.923 30.4406 33.2969 29.793C33.7653 28.9817 34.2011 28.1719 34.6191 27.3653ZM13.4062 32.9239C15.2161 33.3526 17.1777 33.6819 19.2578 33.8965C20.6464 35.9049 22.093 37.7095 23.5488 39.2871C22.8978 39.9219 22.2526 40.5176 21.6211 41.0313C19.9954 42.3537 18.4543 43.2516 17.1699 43.668C15.8855 44.0844 14.9269 44.0295 14.2129 43.6172C13.4988 43.2049 12.973 42.4026 12.6914 41.0821C12.4098 39.7615 12.4176 37.9793 12.75 35.9102C12.9008 34.9715 13.1262 33.9664 13.4062 32.9239ZM36.5605 32.9317C36.843 33.9806 37.069 34.9894 37.2207 35.9336C37.5534 38.0045 37.5617 39.789 37.2793 41.1133C36.9969 42.4376 36.4687 43.248 35.748 43.6641C35.0274 44.0802 34.0596 44.1344 32.7715 43.7168C31.4834 43.2992 29.9416 42.3998 28.3145 41.0762C27.6784 40.5588 27.0287 39.9583 26.373 39.3184C27.8387 37.7346 29.2955 35.9208 30.6934 33.9004C32.7787 33.6873 34.7458 33.3599 36.5605 32.9317ZM21.8672 34.1016C22.894 34.1575 23.9342 34.1953 25 34.1953C26.0305 34.1953 27.0371 34.1598 28.0312 34.1074C27.015 35.4786 25.979 36.7252 24.9473 37.8477C23.9161 36.7228 22.8821 35.474 21.8672 34.1016Z" fill="#D8E4E0"/>
</svg>
