<svg width="50" height="50" viewBox="0 0 50 50" fill="none" xmlns="http://www.w3.org/2000/svg">
<path d="M24.9908 4.6875C24.4205 4.6875 23.8503 4.82739 23.3582 5.10864L7.87354 14.0472C6.87354 14.6254 6.25 15.72 6.25 16.8762V33.0933C6.25 34.2651 6.87354 35.3441 7.87354 35.9222L11.9385 38.266C13.9072 39.2347 14.6093 39.2334 15.4999 39.2334C18.4218 39.2334 20.0928 37.468 20.0928 34.4055V17.6727C20.0928 17.4227 19.8911 17.218 19.6411 17.218H17.688C17.4224 17.218 17.2333 17.4227 17.2333 17.6727V34.3903C17.2333 35.7653 15.8131 37.1086 13.5162 35.968L9.26514 33.5144C9.10889 33.4363 9.01489 33.2651 9.01489 33.0933V16.8915C9.01489 16.704 9.10889 16.5458 9.26514 16.452L24.7498 7.51648C24.8904 7.42273 25.0787 7.42273 25.235 7.51648L40.7196 16.452C40.8759 16.5458 40.9698 16.7043 40.9698 16.8762V33.0933C40.9698 33.2651 40.8755 33.4363 40.7349 33.5144L25.235 42.4683C25.0944 42.5464 24.8904 42.5464 24.7498 42.4683L20.7642 40.1093C20.6548 40.0311 20.5012 40.0162 20.3918 40.0787C19.2825 40.7037 19.0793 40.7814 18.0481 41.1407C17.7981 41.2189 17.4072 41.3746 18.1885 41.8121L23.3582 44.8761C23.8582 45.1573 24.4222 45.3125 24.9847 45.3125C25.5629 45.3125 26.1235 45.1573 26.6235 44.8761L42.1265 35.9222C43.1265 35.3441 43.75 34.2651 43.75 33.0933V16.8915C43.75 15.7196 43.1265 14.6406 42.1265 14.0625L26.6235 5.10864C26.1313 4.82739 25.5612 4.6875 24.9908 4.6875ZM29.1565 17.1967C24.7346 17.1967 22.0947 19.0704 22.0947 22.1954C22.0947 25.5861 24.7173 26.5221 28.9673 26.944C34.0454 27.444 34.436 28.1962 34.436 29.1962C34.436 30.9149 33.0477 31.6498 29.7821 31.6498C25.6727 31.6498 24.7659 30.6171 24.469 28.5858C24.4377 28.3671 24.2513 28.2104 24.0326 28.2104H22.0154C21.7654 28.2104 21.579 28.4155 21.579 28.6499C21.579 31.2593 23.0009 34.3658 29.7821 34.3658C34.6884 34.3658 37.5 32.4308 37.5 29.0558C37.5 25.712 35.234 24.8197 30.484 24.1791C25.6559 23.5541 25.1709 23.2258 25.1709 22.1008C25.1709 21.1633 25.594 19.931 29.1565 19.931C32.3284 19.931 33.5153 20.6163 33.9996 22.757C34.0465 22.9601 34.2173 23.1171 34.436 23.1171H36.4532C36.5782 23.1171 36.686 23.0552 36.7798 22.9614C36.8579 22.8833 36.9053 22.7572 36.8896 22.6166C36.5771 18.9291 34.1252 17.1967 29.1565 17.1967Z" fill="#D8E4E0"/>
</svg>
