<svg width="50" height="50" viewBox="0 0 50 50" fill="none" xmlns="http://www.w3.org/2000/svg">
<path d="M24.9725 1.56406C24.9643 1.56434 24.9563 1.56658 24.9481 1.56711C24.9279 1.56843 24.9088 1.57487 24.8886 1.57779C24.8119 1.58883 24.7386 1.61118 24.6674 1.64493C24.6551 1.65073 24.6413 1.64912 24.6292 1.65561L4.31671 12.5931C4.25167 12.6284 4.19417 12.6725 4.14276 12.7228C4.13206 12.7332 4.12539 12.7469 4.1153 12.7579C4.06425 12.8139 4.02304 12.8762 3.99017 12.9441C3.97905 12.9669 3.96855 12.9887 3.95966 13.0127C3.92825 13.0975 3.9065 13.1851 3.90625 13.2782V13.2798V13.2813V36.7188C3.90625 36.7877 3.91638 36.8568 3.93372 36.9217C3.95714 37.0086 3.99871 37.0879 4.04968 37.1613C4.0616 37.1786 4.07446 37.1938 4.08783 37.2101C4.14476 37.2796 4.20954 37.343 4.28925 37.3902C4.29065 37.391 4.29242 37.3909 4.29382 37.3917C4.29512 37.3925 4.29557 37.394 4.29688 37.3948L24.6002 49.1089C24.6012 49.1095 24.6023 49.1099 24.6033 49.1105C24.6043 49.111 24.6053 49.1114 24.6063 49.112L24.6094 49.1135C24.6447 49.1338 24.6824 49.145 24.7192 49.1593C24.7452 49.1694 24.7703 49.1841 24.7971 49.1913H24.7986C24.8651 49.2092 24.9314 49.2188 24.9985 49.2188H25C25.0663 49.2188 25.1336 49.2098 25.1984 49.1928C25.2116 49.1894 25.2235 49.1818 25.2365 49.1776C25.2851 49.162 25.3342 49.1449 25.3799 49.1196L46.4737 37.4009C46.477 37.399 46.4781 37.3951 46.4813 37.3932C46.4886 37.3891 46.4971 37.3885 46.5042 37.3841C46.576 37.3394 46.636 37.2808 46.6888 37.2178C46.7025 37.2014 46.7133 37.1847 46.7255 37.1674C46.772 37.1019 46.8092 37.032 46.8338 36.9553C46.837 36.9453 46.8417 36.9364 46.8445 36.9263C46.863 36.8594 46.875 36.7901 46.875 36.7188V13.2813C46.875 13.2759 46.8721 13.2714 46.8719 13.266C46.8699 13.1798 46.8501 13.0975 46.8216 13.0188C46.8116 12.9911 46.801 12.9657 46.788 12.9395C46.7564 12.8753 46.7169 12.8173 46.669 12.764C46.6572 12.7509 46.6496 12.7351 46.637 12.7228C46.583 12.6703 46.5228 12.6242 46.4539 12.5885L25.3601 1.65104C25.3279 1.6343 25.2931 1.62635 25.2594 1.61442C25.2402 1.60758 25.2226 1.5999 25.2029 1.59458C25.1275 1.57422 25.0498 1.56143 24.9725 1.56406ZM25.7812 3.62858L44.3726 13.2676L36.731 17.0899L25.7812 11.2503V3.62858ZM24.2188 3.65299V11.2503L13.2858 17.0807L6.32782 13.2859L24.2188 3.65299ZM25 12.6053L35.0586 17.9688L25 23.3323L14.9414 17.9688L25 12.6053ZM45.3125 14.5462V35.4554L37.5 31.5491V18.451L45.3125 14.5462ZM5.46875 14.5981L12.5 18.4327V20.3125C12.5 20.7446 12.85 21.0938 13.2812 21.0938C13.7125 21.0938 14.0625 20.7446 14.0625 20.3125V19.2719L24.2188 24.6872V36.9782L14.0625 31.5628V29.6875C14.0625 29.2555 13.7125 28.9063 13.2812 28.9063C12.85 28.9063 12.5 29.2555 12.5 29.6875V31.5674L5.46875 35.402V14.5981ZM35.9375 19.2719V32.0313C35.9375 32.0703 35.9533 32.1037 35.9589 32.1412C35.9671 32.1974 35.9724 32.2529 35.9924 32.3059C36.0103 32.3531 36.0395 32.3919 36.0657 32.4341C36.092 32.4771 36.1149 32.5202 36.1496 32.5577C36.1874 32.5986 36.2336 32.6279 36.2793 32.66C36.3109 32.6821 36.3338 32.7124 36.3693 32.7301L44.4199 36.7554L25.7812 47.11V38.2813V24.6872L35.9375 19.2719ZM13.2812 22.6563C12.85 22.6563 12.5 23.0055 12.5 23.4375V26.5625C12.5 26.9946 12.85 27.3438 13.2812 27.3438C13.7125 27.3438 14.0625 26.9946 14.0625 26.5625V23.4375C14.0625 23.0055 13.7125 22.6563 13.2812 22.6563ZM33.6777 31.9519C33.5765 31.9611 33.4758 31.991 33.3801 32.042C32.9997 32.2451 32.8543 32.7174 33.0582 33.0979L33.7936 34.4773C33.9343 34.7406 34.2044 34.8908 34.4833 34.8908C34.6068 34.8908 34.7331 34.8617 34.8511 34.7992C35.2315 34.5961 35.3754 34.1223 35.1715 33.7418L34.436 32.3624C34.2837 32.0776 33.9812 31.9246 33.6777 31.9519ZM13.2843 32.9193L24.2188 38.7497V47.0856L6.28204 36.7371L13.2843 32.9193ZM30.4214 33.6884C30.3203 33.6974 30.2194 33.7263 30.1239 33.7769C29.7434 33.98 29.5988 34.4539 29.8019 34.8343L30.5374 36.2137C30.6788 36.477 30.9497 36.6272 31.2286 36.6272C31.3521 36.6272 31.4769 36.5974 31.5948 36.5357C31.9753 36.3326 32.1199 35.8587 31.9168 35.4782L31.1813 34.0989C31.0284 33.8141 30.7249 33.6615 30.4214 33.6884ZM27.1667 35.4233C27.0655 35.4324 26.9649 35.4624 26.8692 35.5133C26.488 35.7165 26.3441 36.1903 26.5472 36.5708L27.2827 37.9486C27.4233 38.2119 27.6935 38.3622 27.9724 38.3622C28.0958 38.3622 28.2222 38.3331 28.3401 38.2706C28.7206 38.0675 28.8645 37.5936 28.6606 37.2132L27.9251 35.8338C27.7734 35.549 27.4704 35.396 27.1667 35.4233Z" fill="#D8E4E0"/>
</svg>
