<svg width="50" height="50" viewBox="0 0 50 50" fill="none" xmlns="http://www.w3.org/2000/svg">
<path d="M10.4167 6.25C8.125 6.25 6.25 8.125 6.25 10.4167V39.5833C6.25 41.875 8.125 43.75 10.4167 43.75H39.5833C41.875 43.75 43.75 41.875 43.75 39.5833V10.4167C43.75 8.125 41.875 6.25 39.5833 6.25H10.4167ZM10.4167 10.4167H39.5833V39.5833H10.4167V10.4167ZM14.5833 16.6667V33.138H18.0705V27.3234H20.3939C22.9126 27.3234 25.6307 25.9677 25.6307 22.0907C25.6307 21.124 25.0464 16.6667 20.2026 16.6667H14.5833ZM18.0705 19.3807H20.3939C21.7501 19.3807 22.3348 20.7344 22.3348 22.0907C22.3348 23.4469 21.9439 24.6094 20.3939 24.6094H18.0705V19.3807ZM31.604 20.7357C30.054 20.7357 27.3397 21.5119 27.3397 24.4181C27.3397 28.2931 32.959 28.1004 32.959 29.8462C32.959 30.6212 32.379 31.0099 31.604 31.0099C31.2165 31.0099 30.0537 30.8143 30.0537 29.2643H26.9531C26.9531 31.2018 28.506 33.3333 31.6081 33.3333C33.1581 33.3333 36.0636 32.7524 36.0636 29.8462C36.0636 25.5816 30.4443 26.1665 30.4443 24.2269C30.4443 23.4519 31.0268 23.0631 31.6081 23.0631C32.3831 23.0631 32.7677 23.6447 32.7677 24.6134H36.0636C36.0636 22.4822 34.5123 20.7357 31.604 20.7357Z" fill="#D8E4E0"/>
</svg>
