<svg width="14" height="14" viewBox="0 0 14 14" fill="none" xmlns="http://www.w3.org/2000/svg">
<path d="M4.98966 1.46069V1.89819L4.80054 2.00016L4.61597 1.68913L0.931966 8.44759C0.898065 8.50981 0.879783 8.57934 0.878691 8.65019C0.8776 8.72104 0.893732 8.79109 0.9257 8.85433L2.67228 12.3019C2.70882 12.374 2.76462 12.4346 2.8335 12.477C2.90238 12.5193 2.98165 12.5417 3.0625 12.5417H10.6458C10.7224 12.5417 10.7976 12.5217 10.864 12.4835C10.9304 12.4453 10.9856 12.3903 11.0241 12.3241L13.0333 8.87142C13.0926 8.79495 13.1248 8.701 13.125 8.60425V8.5957C13.1248 8.5026 13.0948 8.412 13.0395 8.33708L9.39258 1.68799C9.3549 1.61923 9.29944 1.56185 9.232 1.52187C9.16455 1.48188 9.0876 1.46075 9.0092 1.46069H5.00049H4.98966ZM5.72225 2.33569H8.75L11.9447 8.15877L8.86279 8.16276L5.72225 2.33569ZM4.99308 2.82617L6.41781 5.46997L3.08927 11.1888L1.81038 8.66406L4.99308 2.82617ZM6.90487 6.37288L7.86987 8.1639L5.86125 8.16618L6.90487 6.37288ZM11.9264 9.03434L10.394 11.6667H3.82357L5.3514 9.04175L11.9264 9.03434Z" fill="#4AB878"/>
</svg>
