<svg width="50" height="50" viewBox="0 0 50 50" fill="none" xmlns="http://www.w3.org/2000/svg">
<path d="M25 4C25.5664 4 26.0977 4.21875 26.4961 4.62109L45.3789 23.5039C46.207 24.3281 46.207 25.6719 45.3789 26.4961L26.4961 45.3789C26.0977 45.7812 25.5664 46 25 46C24.4336 46 23.9023 45.7812 23.5039 45.3789L4.62109 26.4961C3.79297 25.6719 3.79297 24.3281 4.62109 23.5039L16.9414 11.1836L19.2148 13.457C18.668 15.4883 19.2188 17.7031 20.7578 19.2422C21.125 19.6094 21.543 19.9258 22 20.1875V29.8164C20.1797 30.8672 19 32.8242 19 35C19 38.3086 21.6914 41 25 41C28.3086 41 31 38.3086 31 35C31 32.8242 29.8203 30.8672 28 29.8164V22.2422L29.2148 23.457C28.668 25.4883 29.2188 27.7031 30.7578 29.2422C31.8906 30.375 33.3984 31 35 31C36.6016 31 38.1094 30.375 39.2422 29.2422C41.582 26.9023 41.582 23.0977 39.2422 20.7578C38.1133 19.6289 36.6172 19.0078 35.0195 19.0078C34.4922 19.0078 33.9648 19.0781 33.457 19.2148L30.7852 16.543C31.332 14.5117 30.7812 12.2969 29.2422 10.7578C28.1133 9.62891 26.6172 9.00781 25.0195 9.00781C24.4922 9.00781 23.9648 9.07812 23.457 9.21484L21.1836 6.94141L23.5039 4.62109C23.9023 4.21875 24.4336 4 25 4ZM25 2C23.9453 2 22.8906 2.40234 22.0898 3.20703L18.3555 6.94141L22.9766 11.5625C23.6055 11.1953 24.3125 11.0078 25.0195 11.0078C26.0352 11.0078 27.0508 11.3945 27.8281 12.1719C29.1445 13.4883 29.3359 15.4883 28.4336 17.0195L32.9766 21.5625C33.6055 21.1953 34.3125 21.0078 35.0195 21.0078C36.0352 21.0078 37.0508 21.3945 37.8281 22.1719C39.3906 23.7344 39.3906 26.2656 37.8281 27.8281C37.0469 28.6094 36.0234 29 35 29C33.9766 29 32.9531 28.6094 32.1719 27.8281C30.8555 26.5117 30.6641 24.5117 31.5664 22.9766L27.0234 18.4336C26.6992 18.625 26.3555 18.7656 26 18.8555V31.1406C27.7227 31.5859 29 33.1367 29 35C29 37.2109 27.2109 39 25 39C22.793 39 21 37.2109 21 35C21 33.1367 22.2773 31.5859 24 31.1406V18.8555C23.332 18.6836 22.6953 18.3516 22.1719 17.8281C20.8555 16.5117 20.6641 14.5117 21.5664 12.9805L16.9414 8.35547L3.20703 22.0898C1.59766 23.6953 1.59766 26.3047 3.20703 27.9102L22.0898 46.793C22.8906 47.5977 23.9453 48 25 48C26.0547 48 27.1094 47.5977 27.9102 46.793L46.793 27.9102C48.4023 26.3047 48.4023 23.6953 46.793 22.0898L27.9102 3.20703C27.1094 2.40234 26.0547 2 25 2Z" fill="#D8E4E0"/>
</svg>
