<svg width="20" height="20" viewBox="0 0 20 20" fill="none" xmlns="http://www.w3.org/2000/svg">
<circle cx="10" cy="10" r="10" fill="#FFAC14"/>
<mask id="path-2-inside-1" fill="white">
<path fill-rule="evenodd" clip-rule="evenodd" d="M19.8758 11.5805C18.965 11.8535 17.9997 12.0002 17 12.0002C11.4772 12.0002 7 7.52307 7 2.00023C7 1.46249 7.04244 0.934665 7.12416 0.419922C3.00307 1.65524 0 5.47703 0 10.0002C0 15.5231 4.47715 20.0002 10 20.0002C14.9851 20.0002 19.1182 16.3525 19.8758 11.5805Z"/>
</mask>
<path fill-rule="evenodd" clip-rule="evenodd" d="M19.8758 11.5805C18.965 11.8535 17.9997 12.0002 17 12.0002C11.4772 12.0002 7 7.52307 7 2.00023C7 1.46249 7.04244 0.934665 7.12416 0.419922C3.00307 1.65524 0 5.47703 0 10.0002C0 15.5231 4.47715 20.0002 10 20.0002C14.9851 20.0002 19.1182 16.3525 19.8758 11.5805Z" fill="white"/>
<path d="M19.8758 11.5805L20.3696 11.6589L20.4944 10.8731L19.7323 11.1016L19.8758 11.5805ZM7.12416 0.419922L7.61798 0.49832L7.74273 -0.287478L6.9806 -0.0590234L7.12416 0.419922ZM19.7323 11.1016C18.8676 11.3608 17.9505 11.5002 17 11.5002V12.5002C18.0488 12.5002 19.0625 12.3463 20.0194 12.0595L19.7323 11.1016ZM17 11.5002C11.7533 11.5002 7.5 7.24693 7.5 2.00023H6.5C6.5 7.79922 11.201 12.5002 17 12.5002V11.5002ZM7.5 2.00023C7.5 1.48884 7.54036 0.987229 7.61798 0.49832L6.63035 0.341524C6.54453 0.882101 6.5 1.43614 6.5 2.00023H7.5ZM0.5 10.0002C0.5 5.70393 3.35233 2.07253 7.26773 0.898867L6.9806 -0.0590234C2.65382 1.23796 -0.5 5.25013 -0.5 10.0002H0.5ZM10 19.5002C4.75329 19.5002 0.5 15.2469 0.5 10.0002H-0.5C-0.5 15.7992 4.20101 20.5002 10 20.5002V19.5002ZM19.382 11.5021C18.6624 16.0351 14.7354 19.5002 10 19.5002V20.5002C15.2348 20.5002 19.5741 16.6699 20.3696 11.6589L19.382 11.5021Z" fill="#FFAC14" mask="url(#path-2-inside-1)"/>
</svg>
