<svg width="12" height="12" viewBox="0 0 12 12" fill="none" xmlns="http://www.w3.org/2000/svg">
<path d="M11.1242 0.395458C11.1068 0.396008 11.0895 0.397529 11.0722 0.400015H8.3333C8.27147 0.399141 8.21007 0.410565 8.15268 0.433625C8.0953 0.456685 8.04307 0.49092 7.99903 0.534341C7.95499 0.577761 7.92002 0.629502 7.89615 0.686555C7.87228 0.743609 7.85999 0.804837 7.85999 0.866682C7.85999 0.928527 7.87228 0.989755 7.89615 1.04681C7.92002 1.10386 7.95499 1.1556 7.99903 1.19902C8.04307 1.24244 8.0953 1.27668 8.15268 1.29974C8.21007 1.3228 8.27147 1.33422 8.3333 1.33335H10.0067L5.20336 6.13673C5.15857 6.17973 5.12281 6.23124 5.09818 6.28823C5.07354 6.34523 5.06053 6.40656 5.0599 6.46865C5.05927 6.53073 5.07103 6.59232 5.0945 6.64981C5.11797 6.70729 5.15267 6.75951 5.19657 6.80341C5.24048 6.84732 5.2927 6.88202 5.35018 6.90549C5.40766 6.92896 5.46925 6.94072 5.53134 6.94009C5.59342 6.93946 5.65476 6.92644 5.71175 6.90181C5.76875 6.87718 5.82025 6.84142 5.86325 6.79663L10.6666 1.99324V3.66668C10.6658 3.72852 10.6772 3.78992 10.7002 3.8473C10.7233 3.90469 10.7575 3.95692 10.801 4.00096C10.8444 4.045 10.8961 4.07997 10.9532 4.10383C11.0102 4.1277 11.0715 4.13999 11.1333 4.13999C11.1952 4.13999 11.2564 4.1277 11.3134 4.10383C11.3705 4.07997 11.4222 4.045 11.4656 4.00096C11.5091 3.95692 11.5433 3.90469 11.5664 3.8473C11.5894 3.78992 11.6008 3.72852 11.6 3.66668V0.925927C11.6093 0.858739 11.6038 0.790332 11.584 0.72547C11.5641 0.660608 11.5304 0.60085 11.4851 0.550356C11.4398 0.499863 11.3841 0.459847 11.3217 0.433096C11.2594 0.406345 11.192 0.393501 11.1242 0.395458ZM1.79997 2.26668C1.28988 2.26668 0.866638 2.68992 0.866638 3.20002V10.2C0.866638 10.7101 1.28988 11.1333 1.79997 11.1333H8.79997C9.31007 11.1333 9.7333 10.7101 9.7333 10.2V5.53335V4.33022L8.79997 5.26356V6.46668V10.2H1.79997V3.20002H5.5333H6.46664H6.73643L7.66976 2.26668H6.46664H5.5333H1.79997Z" fill="#4AB878"/>
</svg>
